<mxfile host="app.diagrams.net" modified="2023-11-06T06:10:10.974Z" agent="Mozilla/5.0 (Macintosh; Intel Mac OS X 10_15_7) AppleWebKit/537.36 (KHTML, like Gecko) Chrome/118.0.0.0 Safari/537.36" etag="68HgvJ5-2TEmXXgtc8DS" version="22.0.8" type="github">
  <diagram name="第 1 页" id="fAFlvn18OWHDgP1UVX24">
    <mxGraphModel dx="2074" dy="1125" grid="1" gridSize="10" guides="1" tooltips="1" connect="1" arrows="1" fold="1" page="1" pageScale="1" pageWidth="827" pageHeight="1169" math="0" shadow="0">
      <root>
        <mxCell id="0" />
        <mxCell id="1" parent="0" />
        <mxCell id="bQW8sSXuUJsxYVENt6RU-8" value="" style="html=1;shadow=0;dashed=0;shape=mxgraph.bootstrap.rrect;rSize=5;strokeColor=#6C767D;html=1;whiteSpace=wrap;fillColor=#ffffff;fontColor=#212529;verticalAlign=bottom;align=left;spacing=20;spacingBottom=0;fontSize=14;" vertex="1" parent="1">
          <mxGeometry x="50" y="50" width="1060" height="820" as="geometry" />
        </mxCell>
        <mxCell id="bQW8sSXuUJsxYVENt6RU-9" value="通用变更申请" style="html=1;shadow=0;dashed=0;shape=mxgraph.bootstrap.topButton;rSize=5;perimeter=none;whiteSpace=wrap;fillColor=#F7F7F7;strokeColor=#6C767D;fontColor=#6C767D;resizeWidth=1;fontSize=18;align=left;spacing=20;" vertex="1" parent="bQW8sSXuUJsxYVENt6RU-8">
          <mxGeometry width="1060.0000000000002" height="50" relative="1" as="geometry" />
        </mxCell>
        <mxCell id="bQW8sSXuUJsxYVENt6RU-10" value="标题" style="fillColor=none;strokeColor=none;align=left;fontSize=14;" vertex="1" parent="bQW8sSXuUJsxYVENt6RU-8">
          <mxGeometry width="100" height="30" relative="1" as="geometry">
            <mxPoint x="30" y="130" as="offset" />
          </mxGeometry>
        </mxCell>
        <mxCell id="bQW8sSXuUJsxYVENt6RU-11" value="" style="html=1;shadow=0;dashed=0;shape=mxgraph.bootstrap.rrect;rSize=5;fillColor=none;strokeColor=#999999;align=left;spacing=15;fontSize=14;fontColor=#6C767D;" vertex="1" parent="bQW8sSXuUJsxYVENt6RU-8">
          <mxGeometry width="800" height="30" relative="1" as="geometry">
            <mxPoint x="80" y="130" as="offset" />
          </mxGeometry>
        </mxCell>
        <mxCell id="bQW8sSXuUJsxYVENt6RU-13" value="变更内容" style="fillColor=none;strokeColor=none;align=left;fontSize=14;" vertex="1" parent="bQW8sSXuUJsxYVENt6RU-8">
          <mxGeometry width="60" height="40" relative="1" as="geometry">
            <mxPoint x="20" y="177" as="offset" />
          </mxGeometry>
        </mxCell>
        <mxCell id="bQW8sSXuUJsxYVENt6RU-14" value="" style="html=1;shadow=0;dashed=0;shape=mxgraph.bootstrap.rrect;rSize=5;fillColor=none;strokeColor=#999999;align=left;spacing=15;fontSize=14;fontColor=#6C767D;" vertex="1" parent="bQW8sSXuUJsxYVENt6RU-8">
          <mxGeometry width="800" height="170" relative="1" as="geometry">
            <mxPoint x="80" y="180" as="offset" />
          </mxGeometry>
        </mxCell>
        <mxCell id="bQW8sSXuUJsxYVENt6RU-16" value="发起工单" style="html=1;shadow=0;dashed=0;shape=mxgraph.bootstrap.rrect;rSize=5;fillColor=#0085FC;strokeColor=none;align=center;fontSize=14;fontColor=#FFFFFF;" vertex="1" parent="bQW8sSXuUJsxYVENt6RU-8">
          <mxGeometry width="70" height="40" relative="1" as="geometry">
            <mxPoint x="810" y="450" as="offset" />
          </mxGeometry>
        </mxCell>
      </root>
    </mxGraphModel>
  </diagram>
</mxfile>
